<svg width="191" height="191" viewBox="0 0 191 191" fill="none" xmlns="http://www.w3.org/2000/svg">
<path d="M176.87 61.539C176.855 59.8243 176.75 58.1116 176.557 56.4077C176.536 56.2028 176.474 56.0043 176.375 55.8238C176.275 55.6433 176.141 55.4846 175.979 55.3569C175.817 55.2293 175.632 55.1354 175.433 55.0808C175.235 55.0262 175.027 55.012 174.823 55.039C174.411 55.0875 174.036 55.2975 173.779 55.6228C173.523 55.948 173.406 56.3619 173.454 56.7734C173.52 57.3296 173.507 57.889 173.554 58.4484C165.195 51.3217 154.656 47.2586 143.676 46.9296C143.298 34.3549 138.036 22.4219 129.008 13.6609C119.98 4.89997 107.894 0 95.3134 0C82.7329 0 70.6471 4.89997 61.6187 13.6609C52.5902 22.4219 47.3291 34.3549 46.9509 46.9296C35.9644 47.2595 25.4191 51.3273 17.0571 58.4609C17.0915 58.0296 17.0821 57.5984 17.129 57.1702C17.1516 56.9663 17.1338 56.7599 17.0766 56.5628C17.0194 56.3657 16.9239 56.1818 16.7956 56.0216C16.6674 55.8615 16.5088 55.7281 16.329 55.6292C16.1492 55.5303 15.9517 55.4678 15.7477 55.4452C15.5433 55.4196 15.3358 55.4353 15.1375 55.4913C14.9392 55.5473 14.7542 55.6425 14.5933 55.7713C14.4325 55.9001 14.2991 56.0598 14.2011 56.2411C14.1031 56.4223 14.0424 56.6214 14.0227 56.8265C13.8509 58.389 13.7821 59.9734 13.7634 61.539C7.19808 68.2599 2.73318 76.748 0.914505 85.9657C-0.904176 95.1834 0.00215359 104.731 3.5227 113.442C7.04324 122.153 13.0255 129.649 20.738 135.015C28.4506 140.38 37.5594 143.383 46.9509 143.655C47.2803 154.641 51.3481 165.187 58.4821 173.548C58.0509 173.514 57.6196 173.523 57.1884 173.48C56.9839 173.454 56.7765 173.471 56.5784 173.527C56.3803 173.583 56.1955 173.679 56.035 173.808C55.8744 173.937 55.7414 174.097 55.6438 174.278C55.5461 174.46 55.4858 174.659 55.4665 174.864C55.4218 175.276 55.5425 175.689 55.8021 176.012C56.0617 176.334 56.439 176.541 56.8509 176.586C58.4134 176.755 59.9977 176.823 61.5602 176.842C70.5796 185.663 82.6942 190.603 95.3102 190.603C107.926 190.603 120.041 185.663 129.06 176.842C130.776 176.829 132.49 176.725 134.195 176.53C134.399 176.506 134.596 176.442 134.775 176.341C134.954 176.241 135.112 176.106 135.239 175.945C135.366 175.783 135.461 175.598 135.516 175.401C135.572 175.203 135.588 174.996 135.563 174.792C135.541 174.588 135.478 174.39 135.378 174.21C135.278 174.03 135.143 173.872 134.981 173.745C134.82 173.618 134.634 173.525 134.435 173.471C134.237 173.417 134.03 173.403 133.826 173.43C133.273 173.495 132.71 173.483 132.151 173.53C139.277 165.171 143.341 154.631 143.67 143.651C153.062 143.383 162.173 140.383 169.887 135.019C177.602 129.654 183.587 122.158 187.109 113.447C190.631 104.736 191.538 95.1868 189.72 85.968C187.901 76.7493 183.436 68.2603 176.87 61.539ZM64.0571 15.6952C64.1231 16.0257 64.2942 16.3259 64.5448 16.5512C64.7954 16.7765 65.1121 16.9147 65.4477 16.9452C67.4575 17.0892 69.4556 17.3659 71.429 17.7734C71.5315 17.7966 71.6363 17.8082 71.7415 17.8077C72.1264 17.8045 72.4965 17.6593 72.781 17.4C73.0654 17.1406 73.2441 16.7854 73.2829 16.4025C73.3216 16.0195 73.2176 15.6357 72.9908 15.3247C72.764 15.0137 72.4304 14.7973 72.054 14.7171C70.0938 14.3149 68.111 14.0321 66.1165 13.8702C74.2631 6.91504 84.6235 3.09398 95.3352 3.09398C106.047 3.09398 116.407 6.91504 124.554 13.8702C123.198 13.9827 121.841 14.1296 120.491 14.3515C120.106 14.4167 119.759 14.6242 119.518 14.9329C119.278 15.2417 119.163 15.6293 119.195 16.0192C119.226 16.409 119.403 16.7728 119.69 17.0385C119.977 17.3043 120.353 17.4528 120.745 17.4546C120.832 17.455 120.918 17.4476 121.004 17.4327C122.992 17.102 124.999 16.9036 127.013 16.839C127.211 16.8318 127.405 16.7862 127.585 16.7046C135.553 24.7898 140.185 35.5781 140.56 46.9234C129.46 47.2977 118.831 51.4998 110.476 58.8171C110.37 57.2546 110.213 55.6921 109.957 54.1515C109.889 53.7421 109.661 53.3764 109.324 53.1349C108.986 52.8935 108.567 52.796 108.157 52.864C107.748 52.9319 107.382 53.1598 107.141 53.4973C106.899 53.8349 106.802 54.2546 106.87 54.664C107.199 56.6508 107.396 58.6573 107.46 60.6702C107.477 60.9373 107.562 61.1955 107.707 61.4202C101.721 67.4924 97.4465 75.039 95.3165 83.2952C93.0586 74.5133 88.38 66.542 81.8134 60.289C82.1847 60.262 82.5342 60.1033 82.7989 59.8414C83.0636 59.5796 83.2261 59.2319 83.2571 58.8609C83.4019 56.8508 83.6807 54.8526 84.0915 52.8796C84.1331 52.6785 84.1346 52.4712 84.096 52.2695C84.0574 52.0678 83.9794 51.8757 83.8665 51.7042C83.7536 51.5327 83.608 51.3851 83.438 51.2699C83.268 51.1547 83.077 51.0741 82.8759 51.0327C82.6747 50.9872 82.4665 50.9826 82.2635 51.0194C82.0606 51.0561 81.8672 51.1334 81.6948 51.2465C81.5224 51.3597 81.3746 51.5065 81.2602 51.6781C81.1458 51.8497 81.0671 52.0426 81.029 52.2452C80.5927 54.3525 80.2963 56.4863 80.1415 58.6327C80.145 58.6999 80.1534 58.7668 80.1665 58.8327C71.8097 51.5082 61.1756 47.3014 50.0696 46.9265C50.4631 35.0862 55.4853 23.8727 64.0571 15.6952ZM96.954 93.6421C97.3826 82.2205 102.112 71.3827 110.194 63.3007C118.276 55.2187 129.114 50.4895 140.535 50.0609C140.107 61.4825 135.377 72.3203 127.295 80.4023C119.213 88.4843 108.376 93.2135 96.954 93.6421ZM123.12 110.289C124.607 110.455 126.116 110.511 127.616 110.536C135.511 118.569 140.115 129.265 140.523 140.52C129.267 140.113 118.571 135.509 110.538 127.614C110.524 125.971 110.427 124.329 110.248 122.695C110.226 122.49 110.164 122.292 110.064 122.111C109.964 121.931 109.83 121.773 109.668 121.645C109.506 121.518 109.32 121.424 109.121 121.37C108.922 121.316 108.714 121.302 108.51 121.33C108.306 121.354 108.11 121.418 107.931 121.519C107.752 121.619 107.594 121.754 107.468 121.915C107.341 122.077 107.247 122.262 107.192 122.459C107.136 122.657 107.12 122.863 107.145 123.067C107.182 123.38 107.17 123.692 107.198 123.98C101.547 117.091 98.0674 108.681 97.1977 99.814C97.5102 100.201 97.879 100.545 98.1821 100.942C98.3276 101.136 98.5164 101.294 98.7333 101.402C98.9503 101.511 99.1895 101.567 99.4321 101.567C99.7705 101.569 100.1 101.459 100.37 101.255L100.391 101.23C100.714 101.217 101.025 101.105 101.281 100.908C101.538 100.712 101.727 100.441 101.823 100.132C101.918 99.8241 101.917 99.4937 101.817 99.1865C101.717 98.8793 101.525 98.6105 101.266 98.4171C100.742 98.0175 100.232 97.6006 99.7352 97.1671C108.644 98.0292 117.094 101.523 124.01 107.205C123.829 107.189 123.648 107.205 123.466 107.176C123.056 107.137 122.646 107.259 122.323 107.517C122.001 107.775 121.792 108.148 121.741 108.558C121.718 108.762 121.735 108.969 121.792 109.166C121.848 109.364 121.943 109.549 122.071 109.709C122.199 109.87 122.358 110.004 122.538 110.104C122.718 110.203 122.915 110.266 123.12 110.289ZM82.029 121.736C81.8248 121.711 81.6178 121.727 81.4201 121.784C81.2223 121.84 81.0379 121.936 80.8775 122.064C80.7171 122.193 80.584 122.352 80.486 122.533C80.3881 122.714 80.3273 122.912 80.3071 123.117C80.1415 124.608 80.0852 126.117 80.0602 127.614C72.0271 135.506 61.3329 140.109 50.079 140.517C50.4867 129.262 55.0905 118.566 62.9852 110.533C64.6278 110.521 66.2686 110.423 67.9009 110.239C68.3123 110.19 68.6877 109.98 68.9444 109.655C69.201 109.33 69.318 108.916 69.2696 108.505C69.248 108.3 69.1856 108.101 69.0859 107.921C68.9863 107.74 68.8515 107.582 68.6895 107.455C68.5275 107.327 68.3416 107.234 68.1428 107.18C67.944 107.125 67.7363 107.112 67.5321 107.139C67.2196 107.176 66.9071 107.183 66.5946 107.208C73.5093 101.521 81.9617 98.0247 90.8727 97.164C90.4696 97.4952 90.0727 97.8421 89.6602 98.1577C89.3316 98.4092 89.1161 98.7807 89.0611 99.1908C89.006 99.6008 89.1158 100.016 89.3665 100.345L89.4009 100.373C89.4083 100.775 89.5739 101.158 89.8618 101.438C90.1497 101.718 90.5366 101.874 90.9384 101.87C91.1809 101.87 91.4202 101.814 91.6371 101.705C91.8541 101.597 92.0428 101.439 92.1884 101.245C92.5821 100.72 93.0071 100.217 93.4384 99.7077C92.5776 108.621 89.0809 117.075 83.3946 123.992C83.4134 123.811 83.3946 123.626 83.4259 123.448C83.4466 123.244 83.4269 123.038 83.368 122.841C83.309 122.645 83.2119 122.462 83.0821 122.303C82.9524 122.144 82.7927 122.012 82.612 121.915C82.4313 121.817 82.2332 121.757 82.029 121.736ZM50.079 50.0609C61.5006 50.4895 72.3384 55.2187 80.4204 63.3007C88.5024 71.3827 93.2316 82.2205 93.6602 93.6421C82.2386 93.2135 71.4008 88.4843 63.3188 80.4023C55.2368 72.3203 50.5076 61.4825 50.079 50.0609ZM15.704 126.558C16.0362 126.496 16.3387 126.326 16.5647 126.074C16.7906 125.823 16.9275 125.504 16.954 125.167C17.1086 123.156 17.3936 121.157 17.8071 119.183C17.8722 118.784 17.7806 118.376 17.5514 118.044C17.3223 117.711 16.9734 117.481 16.5778 117.4C16.1823 117.319 15.7708 117.394 15.4296 117.61C15.0885 117.826 14.8441 118.166 14.7477 118.558C14.3463 120.523 14.0656 122.511 13.9071 124.511C6.75657 116.134 2.92656 105.425 3.14253 94.4132C3.3585 83.4014 7.60546 72.8512 15.079 64.7609C15.1541 64.78 15.2303 64.7946 15.3071 64.8046H15.3415C15.5467 64.8001 15.749 64.7553 15.9369 64.6726C16.1247 64.5899 16.2945 64.4711 16.4364 64.3228C16.5783 64.1745 16.6896 63.9997 16.7639 63.8084C16.8383 63.617 16.8742 63.4129 16.8696 63.2077V62.9202C24.9424 55.0233 35.6797 50.4356 46.9665 50.0609C47.3425 61.1621 51.5456 71.7919 58.8634 80.1484C57.3009 80.2577 55.7384 80.414 54.1759 80.6671C53.7858 80.728 53.4332 80.9343 53.1889 81.2445C52.9447 81.5547 52.827 81.9459 52.8595 82.3394C52.892 82.7329 53.0722 83.0995 53.3639 83.3655C53.6557 83.6315 54.0373 83.7773 54.4321 83.7734C54.5162 83.7704 54.5999 83.7599 54.6821 83.7421C56.6699 83.4117 58.6774 83.2134 60.6915 83.1484C60.9604 83.134 61.2205 83.0477 61.4446 82.8984C67.516 88.8853 75.0629 93.1601 83.3196 95.289C75.1745 97.3921 67.7187 101.583 61.6884 107.448H61.479C61.0683 107.448 60.6742 107.61 60.3818 107.898C60.0894 108.187 59.9222 108.578 59.9165 108.989C59.9257 109.055 59.9382 109.121 59.954 109.186C51.9641 117.711 47.3442 128.849 46.954 140.526C35.1139 140.141 23.8978 135.125 15.7165 126.558H15.704ZM127.663 173.764C127.294 173.789 126.945 173.947 126.683 174.208C126.42 174.469 126.26 174.816 126.232 175.186C117.937 183.02 106.977 187.413 95.568 187.476C84.1586 187.539 73.1507 183.268 64.7696 175.526C64.7915 175.438 64.8072 175.348 64.8165 175.258C64.8059 174.85 64.6366 174.463 64.3447 174.179C64.0528 173.895 63.6614 173.736 63.254 173.736H62.9415C55.0446 165.663 50.4569 154.926 50.0821 143.639C61.5839 143.253 72.567 138.76 81.0415 130.973C81.2192 131.046 81.409 131.084 81.6009 131.086H81.6415C81.8467 131.081 82.0489 131.035 82.2364 130.952C82.424 130.868 82.5933 130.749 82.7346 130.6C82.8759 130.451 82.9865 130.275 83.0601 130.084C83.1337 129.892 83.1688 129.688 83.1634 129.483V128.905C89.0239 122.874 93.2097 115.42 95.3071 107.276C97.4104 115.424 101.604 122.881 107.473 128.911V129.092C107.47 129.297 107.507 129.501 107.583 129.692C107.659 129.882 107.772 130.056 107.915 130.203C108.058 130.351 108.229 130.468 108.417 130.549C108.606 130.63 108.808 130.674 109.013 130.676H109.035C109.094 130.668 109.153 130.657 109.21 130.642C117.734 138.632 128.871 143.253 140.548 143.642C140.172 154.941 135.575 165.688 127.663 173.764ZM176.726 124.511C176.623 123.151 176.463 121.795 176.248 120.448C176.169 120.05 175.938 119.698 175.604 119.466C175.27 119.235 174.859 119.143 174.458 119.21C174.058 119.276 173.699 119.497 173.458 119.823C173.216 120.15 173.112 120.558 173.166 120.961C173.496 122.948 173.693 124.954 173.757 126.967C173.764 127.168 173.81 127.365 173.891 127.548C165.806 135.514 155.019 140.145 143.676 140.52C143.289 129.02 138.797 118.039 131.013 109.564C131.09 109.371 131.127 109.165 131.123 108.958C131.121 108.751 131.078 108.547 130.996 108.358C130.914 108.169 130.794 107.998 130.645 107.856C130.495 107.714 130.318 107.603 130.125 107.531C129.932 107.459 129.726 107.427 129.52 107.436H128.938C122.904 101.572 115.443 97.3853 107.295 95.289C116.078 93.031 124.051 88.3537 130.307 81.789C130.331 82.1606 130.487 82.5115 130.746 82.7785C131.006 83.0455 131.352 83.211 131.723 83.2452C133.733 83.3879 135.731 83.6646 137.704 84.0734C137.807 84.0966 137.911 84.1082 138.016 84.1077C138.401 84.1045 138.772 83.9593 139.056 83.7C139.34 83.4406 139.519 83.0854 139.558 82.7025C139.597 82.3195 139.493 81.9357 139.266 81.6247C139.039 81.3137 138.705 81.0973 138.329 81.0171C136.222 80.5786 134.088 80.28 131.941 80.1234C131.87 80.1234 131.81 80.1484 131.741 80.1515C139.068 71.7943 143.276 61.159 143.651 50.0515C154.952 50.4254 165.701 55.024 173.776 62.939C173.802 63.3074 173.96 63.6541 174.22 63.9161C174.481 64.1781 174.826 64.3382 175.195 64.3671C182.824 72.439 187.198 83.0471 187.476 94.1503C187.754 105.253 183.916 116.067 176.701 124.511H176.726Z" fill="#131313"/>
<path d="M85.3073 114.611C85.9184 112.688 86.6587 110.809 87.5229 108.986C87.6673 108.618 87.6671 108.209 87.5222 107.842C87.3774 107.474 87.0986 107.175 86.7421 107.005C86.3857 106.834 85.9779 106.806 85.6009 106.924C85.2239 107.042 84.9057 107.299 84.7104 107.642C83.7855 109.587 82.9931 111.593 82.3385 113.645C82.2759 113.841 82.2525 114.047 82.2696 114.252C82.2868 114.457 82.3442 114.656 82.4385 114.839C82.5329 115.021 82.6623 115.184 82.8194 115.316C82.9765 115.449 83.1583 115.549 83.3542 115.611C83.5071 115.658 83.6661 115.682 83.826 115.683C84.1542 115.682 84.4739 115.578 84.7398 115.386C85.0057 115.194 85.2042 114.922 85.3073 114.611ZM148.254 169.201C146.442 170.083 144.572 170.841 142.657 171.47C142.304 171.586 142.004 171.825 141.81 172.142C141.617 172.46 141.543 172.836 141.603 173.203C141.662 173.57 141.85 173.904 142.133 174.145C142.416 174.386 142.776 174.518 143.148 174.517C143.314 174.517 143.479 174.49 143.635 174.436C145.681 173.764 147.679 172.956 149.617 172.017C149.99 171.836 150.276 171.515 150.411 171.124C150.547 170.732 150.522 170.303 150.342 169.93C150.161 169.557 149.84 169.271 149.448 169.135C149.057 168.999 148.627 169.021 148.254 169.201ZM160.495 160.473C159.071 161.9 157.553 163.23 155.951 164.455C155.622 164.707 155.406 165.079 155.351 165.49C155.296 165.901 155.407 166.317 155.659 166.647C155.911 166.976 156.283 167.192 156.694 167.247C157.106 167.302 157.522 167.191 157.851 166.939C159.562 165.631 161.184 164.209 162.704 162.683C162.989 162.388 163.146 161.993 163.143 161.584C163.139 161.174 162.975 160.782 162.685 160.492C162.395 160.203 162.004 160.038 161.594 160.035C161.184 160.031 160.789 160.189 160.495 160.473ZM106.898 85.0452C105.889 85.5452 104.892 86.0921 103.91 86.6702C104.157 86.2515 104.423 85.839 104.657 85.4202C104.857 85.0568 104.903 84.6291 104.787 84.2311C104.671 83.8332 104.402 83.4977 104.039 83.2984C103.675 83.099 103.247 83.0522 102.849 83.1683C102.452 83.2843 102.116 83.5537 101.917 83.9171C100.949 85.683 99.8631 87.3817 98.6667 89.0015C98.4607 89.3344 98.3873 89.7326 98.4608 90.1171C98.5344 90.5016 98.7497 90.8445 99.064 91.0779C99.3784 91.3113 99.7689 91.4182 100.158 91.3774C100.548 91.3366 100.907 91.1512 101.167 90.8577L101.226 90.7734C101.491 91.0097 101.83 91.1467 102.185 91.1609C102.497 91.1606 102.802 91.067 103.06 90.8921C104.728 89.7629 106.469 88.7471 108.273 87.8515C108.646 87.6671 108.93 87.3421 109.064 86.9479C109.197 86.5538 109.168 86.1229 108.984 85.7499C108.799 85.377 108.474 85.0925 108.08 84.9592C107.686 84.8259 107.255 84.8546 106.882 85.039L106.898 85.0452ZM122.282 80.3921C120.147 80.669 118.032 81.0866 115.951 81.6421C115.585 81.74 115.267 81.9675 115.057 82.2823C114.846 82.597 114.757 82.9776 114.806 83.3532C114.854 83.7288 115.038 84.0739 115.322 84.3242C115.607 84.5745 115.972 84.713 116.351 84.714C116.487 84.7141 116.622 84.6973 116.754 84.664C118.705 84.1459 120.689 83.7585 122.692 83.5046C122.895 83.4788 123.092 83.413 123.271 83.311C123.449 83.209 123.606 83.0728 123.731 82.9103C123.857 82.7477 123.949 82.562 124.003 82.3637C124.057 82.1654 124.071 81.9584 124.045 81.7546C124.02 81.5487 123.955 81.3498 123.852 81.1695C123.75 80.9891 123.613 80.8309 123.449 80.7041C123.285 80.5773 123.097 80.4844 122.897 80.4308C122.697 80.3773 122.488 80.3641 122.282 80.3921ZM174.932 134.72C174.524 134.651 174.105 134.748 173.767 134.988C173.429 135.228 173.201 135.593 173.132 136.001C172.796 137.988 172.329 139.951 171.735 141.876C171.613 142.272 171.653 142.7 171.847 143.066C172.04 143.433 172.371 143.707 172.767 143.83C172.916 143.878 173.072 143.902 173.229 143.901C173.563 143.901 173.888 143.793 174.156 143.595C174.424 143.396 174.622 143.117 174.72 142.798C175.357 140.741 175.856 138.644 176.214 136.52C176.282 136.112 176.186 135.692 175.946 135.355C175.705 135.017 175.341 134.789 174.932 134.72ZM170.329 149.583C170.149 149.484 169.951 149.422 169.747 149.4C169.542 149.378 169.336 149.397 169.139 149.455C168.941 149.513 168.758 149.61 168.598 149.739C168.438 149.868 168.305 150.027 168.207 150.208C167.239 151.972 166.154 153.669 164.96 155.289C164.838 155.454 164.75 155.642 164.7 155.842C164.651 156.041 164.641 156.248 164.672 156.451C164.703 156.655 164.774 156.85 164.88 157.026C164.986 157.202 165.126 157.355 165.292 157.476C165.561 157.682 165.891 157.792 166.229 157.789C166.472 157.789 166.711 157.733 166.928 157.624C167.145 157.516 167.334 157.358 167.479 157.164C168.754 155.43 169.914 153.613 170.951 151.726C171.053 151.545 171.118 151.346 171.142 151.139C171.166 150.933 171.148 150.724 171.09 150.524C171.033 150.324 170.935 150.138 170.805 149.977C170.674 149.815 170.512 149.681 170.329 149.583ZM146.335 86.789C148.185 87.582 149.98 88.4975 151.707 89.5296C151.948 89.6771 152.225 89.7549 152.507 89.7546C152.849 89.7554 153.182 89.6439 153.455 89.4371C153.728 89.2304 153.925 88.9399 154.016 88.6102C154.108 88.2805 154.089 87.9299 153.962 87.6122C153.835 87.2945 153.607 87.0272 153.314 86.8515C151.464 85.7458 149.543 84.7645 147.564 83.914C147.182 83.7511 146.752 83.7464 146.367 83.9008C145.982 84.0552 145.675 84.3562 145.512 84.7374C145.349 85.1187 145.344 85.549 145.499 85.9337C145.653 86.3185 145.954 86.6261 146.335 86.789ZM162.704 94.1827C162.17 93.6507 161.625 93.1298 161.07 92.6202C160.918 92.4819 160.741 92.3749 160.548 92.3051C160.355 92.2354 160.15 92.2043 159.945 92.2138C159.74 92.2232 159.539 92.2729 159.353 92.3601C159.167 92.4472 159 92.5702 158.862 92.7218C158.724 92.8734 158.617 93.0508 158.547 93.2438C158.477 93.4369 158.446 93.6417 158.455 93.8467C158.465 94.0517 158.515 94.2529 158.602 94.4387C158.689 94.6245 158.812 94.7913 158.964 94.9296C159.482 95.4004 159.992 95.8879 160.492 96.3921C161.429 97.3254 162.316 98.289 163.151 99.2827C163.419 99.5968 163.8 99.7922 164.211 99.8262C164.623 99.8602 165.031 99.7301 165.346 99.4644C165.662 99.1986 165.86 98.8186 165.896 98.4076C165.933 97.9965 165.805 97.5876 165.542 97.2702C164.646 96.214 163.7 95.1848 162.704 94.1827ZM104.854 167.126C103.137 166.076 101.492 164.913 99.9292 163.645C99.7697 163.516 99.5864 163.419 99.3896 163.361C99.1929 163.303 98.9865 163.283 98.7824 163.305C98.5782 163.326 98.3803 163.387 98.1998 163.485C98.0194 163.583 97.86 163.715 97.7307 163.875C97.6015 164.034 97.5048 164.218 97.4464 164.414C97.388 164.611 97.3689 164.818 97.3902 165.022C97.4116 165.226 97.4729 165.424 97.5707 165.604C97.6686 165.785 97.801 165.944 97.9604 166.073C99.6319 167.428 101.391 168.672 103.226 169.795C103.47 169.945 103.752 170.024 104.039 170.023C104.38 170.024 104.711 169.913 104.983 169.707C105.256 169.502 105.453 169.213 105.545 168.884C105.638 168.556 105.62 168.207 105.495 167.889C105.371 167.572 105.145 167.304 104.854 167.126ZM89.9698 152.373C89.7506 152.022 89.4006 151.771 88.9968 151.677C88.593 151.584 88.1685 151.654 87.8167 151.873C87.4648 152.093 87.2145 152.443 87.1207 152.846C87.027 153.25 87.0974 153.675 87.3167 154.026C88.4573 155.855 89.7184 157.606 91.0917 159.267C91.3565 159.586 91.7372 159.787 92.15 159.825C92.5629 159.864 92.9741 159.737 93.2932 159.472C93.6123 159.207 93.8131 158.826 93.8515 158.413C93.8899 158.001 93.7627 157.589 93.4979 157.27C92.2121 155.72 91.0333 154.084 89.9698 152.373ZM171.001 105.258C170.903 105.078 170.77 104.919 170.61 104.79C170.45 104.661 170.267 104.565 170.07 104.507C169.873 104.449 169.667 104.43 169.463 104.452C169.259 104.474 169.061 104.536 168.881 104.634C168.701 104.733 168.542 104.865 168.413 105.025C168.284 105.185 168.188 105.368 168.13 105.565C168.072 105.762 168.053 105.969 168.075 106.173C168.097 106.377 168.159 106.574 168.257 106.755C169.219 108.524 170.063 110.355 170.785 112.236C170.899 112.531 171.099 112.785 171.359 112.964C171.62 113.143 171.929 113.239 172.245 113.239C172.435 113.239 172.623 113.204 172.801 113.136C172.993 113.062 173.168 112.952 173.317 112.811C173.466 112.67 173.586 112.5 173.669 112.313C173.753 112.125 173.799 111.923 173.804 111.718C173.81 111.513 173.775 111.309 173.701 111.117C172.93 109.107 172.028 107.15 171.001 105.258ZM85.9792 144.261C85.2783 142.372 84.7031 140.438 84.2573 138.473C84.216 138.269 84.1343 138.076 84.017 137.903C83.8997 137.731 83.7492 137.584 83.5744 137.471C83.3995 137.358 83.2038 137.281 82.9988 137.245C82.7938 137.209 82.5835 137.214 82.3805 137.26C82.1774 137.306 81.9856 137.392 81.8162 137.513C81.6469 137.634 81.5036 137.788 81.3946 137.966C81.2856 138.143 81.2131 138.34 81.1815 138.546C81.1499 138.752 81.1597 138.962 81.2104 139.164C81.6848 141.264 82.2998 143.33 83.051 145.348C83.1619 145.647 83.3614 145.905 83.6228 146.087C83.8842 146.269 84.195 146.367 84.5135 146.367C84.7004 146.367 84.8857 146.333 85.0604 146.267C85.4479 146.122 85.7622 145.83 85.9345 145.454C86.1067 145.078 86.1228 144.649 85.9792 144.261ZM111.942 173.98C113.967 174.713 116.04 175.31 118.145 175.767C118.253 175.792 118.365 175.804 118.476 175.805C118.863 175.806 119.236 175.664 119.524 175.406C119.812 175.148 119.994 174.793 120.035 174.409C120.076 174.024 119.973 173.638 119.747 173.325C119.52 173.012 119.185 172.795 118.807 172.714C116.839 172.287 114.901 171.729 113.007 171.042C112.814 170.97 112.608 170.936 112.401 170.944C112.195 170.951 111.992 171 111.804 171.086C111.617 171.173 111.448 171.295 111.308 171.448C111.168 171.6 111.06 171.778 110.99 171.972C110.919 172.166 110.888 172.373 110.898 172.579C110.907 172.786 110.958 172.988 111.047 173.175C111.135 173.361 111.26 173.529 111.414 173.667C111.567 173.805 111.747 173.911 111.942 173.98ZM84.0573 103.636C83.9678 103.451 83.8429 103.286 83.6895 103.15C83.5362 103.013 83.3575 102.908 83.1637 102.841C82.9698 102.774 82.7646 102.745 82.5598 102.757C82.3549 102.769 82.1545 102.821 81.9698 102.911C80.1584 103.792 78.2895 104.55 76.376 105.18C76.0231 105.296 75.723 105.534 75.5296 105.851C75.3363 106.168 75.2623 106.544 75.321 106.911C75.3797 107.278 75.5673 107.612 75.8499 107.853C76.1326 108.094 76.492 108.226 76.8635 108.226C77.0295 108.227 77.1943 108.2 77.351 108.145C79.3976 107.474 81.3969 106.666 83.3354 105.726C83.5202 105.637 83.6855 105.511 83.8218 105.358C83.9582 105.204 84.0628 105.025 84.1299 104.831C84.1969 104.637 84.225 104.431 84.2126 104.226C84.2001 104.021 84.1473 103.82 84.0573 103.636ZM93.101 29.039C92.951 29.1984 92.7885 29.3515 92.6448 29.5171C92.4985 29.6671 92.3838 29.8449 92.3077 30.0401C92.2315 30.2353 92.1954 30.4438 92.2014 30.6532C92.2075 30.8627 92.2556 31.0687 92.3429 31.2592C92.4302 31.4496 92.5549 31.6206 92.7096 31.7619C92.8643 31.9032 93.0458 32.0119 93.2434 32.0816C93.441 32.1513 93.6506 32.1806 93.8597 32.1677C94.0688 32.1547 94.2732 32.0999 94.4606 32.0064C94.6481 31.9129 94.8149 31.7826 94.951 31.6234L95.2854 31.2734C95.8167 31.8421 96.3667 32.3984 96.8479 32.9859C97.1157 33.2999 97.4968 33.4953 97.9081 33.5293C98.3194 33.5633 98.7275 33.4333 99.0432 33.1675C99.3589 32.9017 99.5567 32.5218 99.5933 32.1107C99.6299 31.6996 99.5023 31.2907 99.2385 30.9734C98.6917 30.3234 98.0854 29.7077 97.501 29.0827C98.0948 28.5265 98.6823 27.9546 99.2948 27.4327C99.6035 27.1631 99.7939 26.783 99.825 26.3743C99.8561 25.9656 99.7253 25.5611 99.4609 25.2479C99.1965 24.9347 98.8196 24.7379 98.4115 24.7C98.0034 24.6621 97.5967 24.7861 97.2792 25.0452C96.6073 25.614 95.9666 26.239 95.3166 26.8484C95.1323 26.6765 94.9542 26.4952 94.7698 26.3265C94.6198 26.1802 94.4419 26.0655 94.2468 25.9894C94.0516 25.9132 93.8431 25.8771 93.6337 25.8831C93.4242 25.8892 93.2182 25.9373 93.0277 26.0246C92.8372 26.1119 92.6663 26.2366 92.525 26.3913C92.3837 26.546 92.275 26.7275 92.2053 26.9251C92.1356 27.1227 92.1063 27.3323 92.1192 27.5414C92.1321 27.7505 92.187 27.9549 92.2805 28.1423C92.374 28.3298 92.5043 28.4966 92.6635 28.6327C92.8073 28.7734 92.9573 28.914 93.101 29.039ZM17.0385 49.3296C17.1912 49.3776 17.3504 49.4018 17.5104 49.4015C17.8417 49.4021 18.1647 49.2974 18.4327 49.1025C18.7006 48.9076 18.8996 48.6325 19.001 48.3171C19.6114 46.3941 20.3516 44.5148 21.2167 42.6921C21.3611 42.3244 21.3608 41.9156 21.216 41.548C21.0711 41.1804 20.7924 40.8814 20.4359 40.7111C20.0794 40.5407 19.6716 40.5118 19.2947 40.63C18.9177 40.7483 18.5995 41.0049 18.4042 41.3484C17.4795 43.2938 16.6871 45.2994 16.0323 47.3515C15.9675 47.5474 15.9422 47.7542 15.9578 47.9599C15.9734 48.1657 16.0296 48.3663 16.1232 48.5502C16.2167 48.7341 16.3458 48.8977 16.5029 49.0315C16.66 49.1652 16.8421 49.2666 17.0385 49.3296ZM104.492 45.9452C104.605 46.2405 104.805 46.4944 105.066 46.6735C105.326 46.8526 105.635 46.9484 105.951 46.9484C106.142 46.9493 106.332 46.9143 106.51 46.8452C106.897 46.6969 107.209 46.4014 107.377 46.0235C107.546 45.6457 107.558 45.2163 107.41 44.8296C106.641 42.8184 105.738 40.8609 104.707 38.9702C104.612 38.7847 104.481 38.62 104.321 38.4859C104.162 38.3519 103.977 38.2511 103.778 38.1896C103.578 38.1281 103.369 38.1071 103.161 38.1278C102.954 38.1486 102.753 38.2106 102.57 38.3103C102.386 38.41 102.225 38.5453 102.095 38.7083C101.965 38.8713 101.869 39.0587 101.813 39.2594C101.756 39.4601 101.74 39.6701 101.766 39.8769C101.792 40.0838 101.859 40.2834 101.964 40.464C102.927 42.2328 103.772 44.064 104.492 45.9452ZM86.2198 23.4671C86.5619 23.4679 86.8949 23.3564 87.1675 23.1496C87.4402 22.9429 87.6374 22.6524 87.729 22.3227C87.8205 21.993 87.8013 21.6424 87.6744 21.3247C87.5474 21.007 87.3196 20.7397 87.026 20.564C85.1774 19.456 83.2564 18.4736 81.276 17.6234C80.8948 17.4601 80.4643 17.4549 80.0793 17.6091C79.6942 17.7632 79.3862 18.064 79.2229 18.4452C79.0596 18.8265 79.0545 19.257 79.2086 19.642C79.3628 20.027 79.6635 20.3351 80.0448 20.4984C81.8951 21.2911 83.6898 22.2078 85.4167 23.2421C85.6586 23.3895 85.9365 23.4674 86.2198 23.4671ZM108.642 68.4296C108.439 68.3925 108.231 68.3965 108.03 68.4412C107.829 68.4859 107.639 68.5705 107.471 68.6899C107.303 68.8094 107.161 68.9613 107.053 69.1366C106.945 69.312 106.873 69.5073 106.842 69.7109C106.505 71.6977 106.039 73.6602 105.445 75.5859C105.323 75.9816 105.363 76.4096 105.556 76.7759C105.75 77.1421 106.08 77.4166 106.476 77.539C106.625 77.5872 106.782 77.6115 106.939 77.6109C107.272 77.6103 107.597 77.5028 107.865 77.3043C108.133 77.1058 108.331 76.8267 108.429 76.5077C109.066 74.4506 109.565 72.3532 109.923 70.2296C109.992 69.821 109.895 69.4018 109.655 69.0643C109.415 68.7267 109.05 68.4984 108.642 68.4296ZM26.9979 93.1765C27.3133 92.9124 27.5119 92.5346 27.5505 92.1251C27.5891 91.7156 27.4646 91.3073 27.2042 90.989C25.9186 89.4396 24.7398 87.8046 23.676 86.0952C23.5721 85.9125 23.4323 85.7526 23.2651 85.6252C23.0979 85.4977 22.9067 85.4053 22.703 85.3535C22.4993 85.3017 22.2871 85.2915 22.0794 85.3236C21.8716 85.3557 21.6724 85.4294 21.4938 85.5402C21.3152 85.6511 21.1608 85.7969 21.0399 85.9688C20.9189 86.1408 20.8339 86.3354 20.7899 86.541C20.746 86.7466 20.7439 86.9589 20.784 87.1653C20.824 87.3717 20.9053 87.5679 21.0229 87.7421C22.1607 89.5737 23.4219 91.3257 24.7979 92.9859C25.0624 93.3008 25.4404 93.4987 25.8499 93.5368C26.2594 93.5748 26.6674 93.4498 26.9854 93.189L26.9979 93.1765ZM18.7698 79.9765C19.158 79.8318 19.4729 79.5389 19.6452 79.162C19.8175 78.7852 19.8331 78.3554 19.6885 77.9671C18.9877 76.0783 18.4135 74.1448 17.9698 72.1796C17.8782 71.7751 17.6297 71.4236 17.2789 71.2024C16.9282 70.9812 16.5039 70.9083 16.0995 70.9999C15.695 71.0915 15.3435 71.34 15.1223 71.6907C14.901 72.0415 14.8282 72.4658 14.9198 72.8702C15.3957 74.965 16.0106 77.0259 16.7604 79.039C16.8713 79.3376 17.0708 79.5953 17.3321 79.7773C17.5935 79.9594 17.9043 80.0572 18.2229 80.0577C18.4085 80.0628 18.5936 80.0353 18.7698 79.9765ZM35.9135 24.8609C36.2247 24.8619 36.5288 24.7682 36.7854 24.5921C38.4536 23.4605 40.1949 22.4405 41.9979 21.539C42.1826 21.4479 42.3475 21.3213 42.4832 21.1664C42.619 21.0116 42.7229 20.8315 42.7891 20.6365C42.8552 20.4415 42.8823 20.2354 42.8688 20.0299C42.8553 19.8245 42.8015 19.6236 42.7104 19.439C42.6193 19.2543 42.4927 19.0894 42.3379 18.9536C42.183 18.8179 42.003 18.714 41.808 18.6478C41.613 18.5816 41.4068 18.5545 41.2014 18.568C40.9959 18.5815 40.7951 18.6354 40.6104 18.7265C38.6817 19.6855 36.8192 20.7723 35.0354 21.9796C34.7584 22.1672 34.5489 22.4387 34.4378 22.7543C34.3266 23.0698 34.3197 23.4127 34.418 23.7325C34.5163 24.0523 34.7147 24.3321 34.9839 24.5307C35.2531 24.7293 35.579 24.8363 35.9135 24.8359V24.8609ZM38.5604 100.833C36.8429 99.7819 35.1966 98.619 33.6323 97.3515C33.3099 97.0904 32.897 96.9681 32.4844 97.0115C32.0718 97.0548 31.6934 97.2603 31.4323 97.5827C31.1712 97.9051 31.0489 98.318 31.0923 98.7306C31.1356 99.1432 31.3411 99.5217 31.6635 99.7827C33.3358 101.136 35.0948 102.378 36.9292 103.501C37.2831 103.718 37.7084 103.785 38.1116 103.687C38.5148 103.59 38.8628 103.337 39.0792 102.983C39.2955 102.629 39.3623 102.203 39.2651 101.8C39.1678 101.397 38.9143 101.049 38.5604 100.833ZM52.5135 106.423C50.5452 105.994 48.6076 105.435 46.7135 104.748C46.3252 104.612 45.8989 104.635 45.5272 104.811C45.1554 104.987 44.8682 105.303 44.7279 105.69C44.5876 106.077 44.6055 106.503 44.7777 106.877C44.95 107.251 45.2627 107.541 45.6479 107.686C47.673 108.421 49.7454 109.018 51.851 109.473C51.9597 109.498 52.0708 109.511 52.1823 109.511C52.5663 109.509 52.936 109.365 53.2209 109.108C53.5059 108.85 53.686 108.497 53.727 108.115C53.7679 107.733 53.6669 107.35 53.443 107.038C53.2192 106.726 52.8883 106.507 52.5135 106.423ZM50.0604 18.414C50.1964 18.4159 50.3321 18.399 50.4635 18.364C52.4148 17.8463 54.3983 17.459 56.401 17.2046C56.6058 17.1802 56.8037 17.1155 56.9833 17.0143C57.163 16.913 57.3208 16.7772 57.4477 16.6147C57.5746 16.4522 57.6681 16.2661 57.7228 16.0673C57.7774 15.8684 57.7922 15.6608 57.7662 15.4562C57.7402 15.2516 57.674 15.0542 57.5714 14.8754C57.4687 14.6965 57.3317 14.5398 57.1682 14.4141C57.0047 14.2885 56.8179 14.1964 56.6187 14.1433C56.4194 14.0902 56.2116 14.077 56.0073 14.1046C53.8714 14.3797 51.7562 14.7973 49.676 15.3546C49.3104 15.4524 48.9927 15.6797 48.782 15.9941C48.5712 16.3086 48.4818 16.6888 48.5303 17.0642C48.5788 17.4396 48.7619 17.7846 49.0457 18.0352C49.3294 18.2857 49.6944 18.4248 50.0729 18.4265L50.0604 18.414ZM24.6479 35.6015C24.8905 35.6015 25.1297 35.545 25.3467 35.4365C25.5636 35.328 25.7524 35.1705 25.8979 34.9765C27.1065 33.366 28.4209 31.8376 29.8323 30.4015C30.1031 30.1024 30.2477 29.7101 30.2358 29.3068C30.224 28.9035 30.0566 28.5204 29.7687 28.2378C29.4807 27.9551 29.0946 27.7948 28.6912 27.7903C28.2877 27.7859 27.8982 27.9377 27.6042 28.214C26.0975 29.7493 24.6935 31.382 23.401 33.1015C23.2269 33.3336 23.1209 33.6097 23.0948 33.8987C23.0688 34.1877 23.1237 34.4782 23.2535 34.7377C23.3833 34.9973 23.5827 35.2156 23.8296 35.3681C24.0764 35.5207 24.3609 35.6015 24.651 35.6015H24.6479ZM150.223 22.3921C151.989 23.3588 153.687 24.4436 155.307 25.639C155.64 25.8382 156.035 25.9064 156.416 25.8304C156.796 25.7544 157.135 25.5395 157.366 25.2277C157.596 24.9158 157.703 24.5292 157.664 24.1431C157.626 23.7571 157.445 23.3991 157.157 23.139C155.427 21.8604 153.612 20.6994 151.726 19.664C151.546 19.5653 151.348 19.503 151.144 19.4807C150.94 19.4584 150.734 19.4764 150.537 19.5339C150.34 19.5914 150.156 19.6871 149.996 19.8155C149.836 19.944 149.703 20.1028 149.604 20.2827C149.505 20.4627 149.443 20.6603 149.421 20.8643C149.399 21.0684 149.417 21.2748 149.474 21.4718C149.532 21.6688 149.627 21.8526 149.756 22.0127C149.884 22.1727 150.043 22.3059 150.223 22.4046V22.3921ZM171.492 47.939C171.595 48.2511 171.794 48.5227 172.06 48.7151C172.327 48.9076 172.647 49.011 172.976 49.0109C173.142 49.0124 173.307 48.986 173.464 48.9327C173.857 48.8034 174.183 48.523 174.37 48.1532C174.557 47.7834 174.59 47.3545 174.46 46.9609C173.786 44.9142 172.976 42.915 172.035 40.9765C171.946 40.7918 171.82 40.6266 171.666 40.4904C171.513 40.3542 171.334 40.2496 171.14 40.1826C170.945 40.1155 170.74 40.0874 170.535 40.0997C170.33 40.1121 170.129 40.1647 169.945 40.2546C169.76 40.3445 169.595 40.4698 169.459 40.6235C169.322 40.7772 169.218 40.9563 169.151 41.1504C169.084 41.3445 169.056 41.55 169.068 41.755C169.08 41.96 169.133 42.1606 169.223 42.3452C170.104 44.1567 170.862 46.0256 171.492 47.939ZM164.476 34.664C164.622 34.858 164.81 35.0155 165.027 35.124C165.244 35.2325 165.483 35.289 165.726 35.289C166.064 35.291 166.394 35.1812 166.664 34.9765C166.992 34.7246 167.207 34.3529 167.261 33.9428C167.315 33.5327 167.205 33.1178 166.954 32.789C165.645 31.0794 164.224 29.4581 162.701 27.9359C162.557 27.7866 162.384 27.6676 162.194 27.5857C162.003 27.5038 161.798 27.4607 161.591 27.4589C161.383 27.4571 161.177 27.4966 160.985 27.5752C160.793 27.6538 160.619 27.7698 160.472 27.9165C160.326 28.0632 160.21 28.2376 160.131 28.4297C160.052 28.6217 160.013 28.8274 160.015 29.0349C160.016 29.2424 160.06 29.4474 160.141 29.638C160.223 29.8287 160.342 30.0011 160.492 30.1452C161.918 31.5622 163.249 33.0717 164.476 34.664ZM106.026 22.5327C106.287 22.5326 106.544 22.467 106.773 22.3421C108.54 21.3775 110.372 20.5349 112.254 19.8202C112.446 19.7472 112.622 19.637 112.771 19.496C112.921 19.355 113.041 19.186 113.125 18.9985C113.21 18.8111 113.256 18.6089 113.262 18.4035C113.268 18.1981 113.233 17.9935 113.16 17.8015C113.087 17.6094 112.977 17.4336 112.836 17.2841C112.695 17.1347 112.526 17.0144 112.339 16.9303C112.151 16.8461 111.949 16.7997 111.744 16.7937C111.538 16.7877 111.334 16.8222 111.142 16.8952C109.128 17.6629 107.169 18.565 105.276 19.5952C104.969 19.7607 104.727 20.024 104.587 20.3432C104.447 20.6624 104.418 21.0191 104.504 21.3568C104.59 21.6944 104.787 21.9936 105.063 22.2066C105.339 22.4197 105.678 22.5345 106.026 22.5327ZM174.592 70.6015C174.187 70.5132 173.763 70.5894 173.415 70.8133C173.066 71.0372 172.821 71.3904 172.732 71.7952C172.307 73.7627 171.749 75.6994 171.064 77.5921C170.922 77.9816 170.941 78.4115 171.116 78.7872C171.291 79.1628 171.608 79.4535 171.998 79.5952C172.387 79.737 172.817 79.7181 173.193 79.5429C173.569 79.3677 173.859 79.0504 174.001 78.6609C174.733 76.6341 175.329 74.5607 175.785 72.4546C175.872 72.0507 175.795 71.6289 175.571 71.2817C175.347 70.9344 174.995 70.6898 174.592 70.6015ZM83.1573 75.8046C83.2934 75.8052 83.429 75.7873 83.5604 75.7515C83.7589 75.6988 83.945 75.6076 84.1082 75.483C84.2714 75.3584 84.4085 75.2028 84.5115 75.0252C84.6145 74.8475 84.6815 74.6514 84.7087 74.4478C84.7359 74.2443 84.7226 74.0374 84.6698 73.839C84.1513 71.8877 83.763 69.9042 83.5073 67.9015C83.4547 67.4904 83.2409 67.117 82.913 66.8636C82.5851 66.6101 82.1699 66.4973 81.7588 66.5499C81.3478 66.6025 80.9744 66.8163 80.721 67.1442C80.4675 67.4721 80.3547 67.8873 80.4073 68.2984C80.6836 70.4351 81.1012 72.5512 81.6573 74.6327C81.7433 74.966 81.937 75.2615 82.2082 75.4734C82.4795 75.6853 82.8131 75.8018 83.1573 75.8046ZM169.295 85.2265C168.941 85.0108 168.517 84.9442 168.114 85.0415C167.711 85.1388 167.364 85.3919 167.148 85.7452C166.098 87.4631 164.934 89.1085 163.664 90.6702C163.406 90.9913 163.285 91.4013 163.328 91.8109C163.37 92.2206 163.573 92.5968 163.892 92.8577C164.169 93.0853 164.517 93.209 164.876 93.2077C165.108 93.2076 165.338 93.1556 165.548 93.0556C165.757 92.9556 165.942 92.8101 166.089 92.6296C167.446 90.9594 168.691 89.2003 169.814 87.364C170.026 87.0113 170.091 86.5888 169.994 86.1885C169.897 85.7882 169.646 85.4424 169.295 85.2265ZM114.626 105.289C112.703 104.678 110.824 103.936 109.001 103.07C108.634 102.929 108.227 102.931 107.861 103.077C107.496 103.223 107.198 103.501 107.029 103.856C106.86 104.211 106.831 104.617 106.948 104.993C107.065 105.369 107.319 105.686 107.66 105.883C109.607 106.803 111.611 107.596 113.66 108.255C113.815 108.304 113.976 108.329 114.139 108.33C114.512 108.331 114.875 108.199 115.159 107.956C115.444 107.713 115.632 107.377 115.689 107.007C115.747 106.638 115.67 106.26 115.472 105.942C115.275 105.625 114.97 105.389 114.614 105.276L114.626 105.289ZM157.292 97.0983C155.738 98.3834 154.101 99.5642 152.392 100.633C152.04 100.852 151.79 101.203 151.697 101.606C151.604 102.01 151.675 102.434 151.895 102.786C152.114 103.137 152.465 103.387 152.868 103.48C153.272 103.573 153.696 103.502 154.048 103.283C155.873 102.14 157.621 100.88 159.282 99.5109C159.602 99.2469 159.804 98.8666 159.844 98.4538C159.883 98.0409 159.757 97.6292 159.493 97.3093C159.229 96.9894 158.849 96.7874 158.436 96.7479C158.023 96.7083 157.612 96.8344 157.292 97.0983ZM144.276 104.611C142.387 105.312 140.453 105.888 138.489 106.336C138.116 106.423 137.788 106.643 137.567 106.955C137.346 107.268 137.247 107.65 137.289 108.031C137.332 108.411 137.512 108.763 137.797 109.019C138.081 109.275 138.45 109.418 138.832 109.42C138.95 109.422 139.067 109.409 139.182 109.383C141.282 108.904 143.347 108.29 145.367 107.542C145.755 107.397 146.071 107.104 146.243 106.727C146.416 106.35 146.432 105.92 146.287 105.531C146.142 105.142 145.849 104.827 145.472 104.655C145.095 104.482 144.665 104.466 144.276 104.611ZM86.8698 37.2827C85.7629 39.1293 84.7815 41.0482 83.9323 43.0265C83.8512 43.215 83.8081 43.4177 83.8054 43.623C83.8027 43.8282 83.8404 44.032 83.9164 44.2226C83.9925 44.4133 84.1053 44.5871 84.2485 44.7341C84.3917 44.8812 84.5625 44.9985 84.751 45.0796C84.9396 45.1607 85.1423 45.2038 85.3475 45.2065C85.5528 45.2092 85.7565 45.1715 85.9472 45.0954C86.1378 45.0194 86.3116 44.9066 86.4587 44.7634C86.6057 44.6202 86.7231 44.4494 86.8042 44.2608C87.5986 42.4108 88.5163 40.6162 89.551 38.889C89.764 38.5334 89.8271 38.1078 89.7263 37.7058C89.6255 37.3038 89.3691 36.9582 89.0135 36.7452C88.658 36.5322 88.2324 36.4692 87.8303 36.57C87.4283 36.6708 87.0828 36.9272 86.8698 37.2827ZM136.026 17.4765C138.012 17.8125 139.973 18.2781 141.898 18.8702C142.047 18.9175 142.204 18.9407 142.36 18.939C142.733 18.9368 143.092 18.8016 143.374 18.5578C143.656 18.3139 143.841 17.9774 143.897 17.609C143.952 17.2406 143.874 16.8645 143.676 16.5485C143.479 16.2325 143.175 15.9975 142.82 15.8859C140.767 15.2483 138.675 14.7461 136.557 14.3827C136.148 14.3139 135.729 14.4104 135.391 14.651C135.053 14.8916 134.825 15.2565 134.756 15.6655C134.687 16.0746 134.783 16.4941 135.024 16.832C135.265 17.1699 135.63 17.3983 136.039 17.4671L136.026 17.4765ZM21.5573 148.598C21.4664 148.414 21.34 148.249 21.1853 148.113C21.0307 147.977 20.8508 147.873 20.6559 147.807C20.4611 147.74 20.2551 147.713 20.0497 147.726C19.8443 147.74 19.6435 147.793 19.4588 147.884C19.2742 147.975 19.1092 148.102 18.9734 148.256C18.8376 148.411 18.7335 148.591 18.6672 148.786C18.6009 148.98 18.5736 149.186 18.5869 149.392C18.6002 149.597 18.6539 149.798 18.7448 149.983C19.702 151.913 20.7889 153.777 21.9979 155.561C22.11 155.737 22.2563 155.889 22.4281 156.008C22.6 156.127 22.794 156.21 22.9986 156.253C23.2031 156.295 23.4141 156.296 23.6191 156.256C23.8241 156.215 24.0189 156.134 24.192 156.017C24.3651 155.9 24.5129 155.749 24.6268 155.574C24.7407 155.399 24.8182 155.203 24.8549 154.997C24.8916 154.791 24.8866 154.58 24.8403 154.377C24.794 154.173 24.7074 153.981 24.5854 153.811C23.4619 152.142 22.4503 150.401 21.5573 148.598ZM30.4073 160.761C30.2606 160.617 30.087 160.504 29.8965 160.427C29.706 160.351 29.5023 160.313 29.297 160.315C29.0917 160.317 28.8888 160.359 28.6999 160.44C28.5111 160.521 28.34 160.638 28.1963 160.784C28.0527 160.931 27.9394 161.105 27.8628 161.295C27.7863 161.486 27.748 161.689 27.7502 161.895C27.7523 162.1 27.7949 162.303 27.8755 162.492C27.9561 162.68 28.0731 162.852 28.2198 162.995C29.7601 164.501 31.3969 165.905 33.1198 167.198C33.2839 167.321 33.4707 167.411 33.6695 167.462C33.8683 167.513 34.0751 167.524 34.2783 167.495C34.4814 167.466 34.6768 167.397 34.8534 167.293C35.0299 167.188 35.1842 167.05 35.3073 166.886C35.4304 166.722 35.52 166.535 35.5709 166.336C35.6218 166.137 35.6331 165.931 35.6041 165.727C35.5751 165.524 35.5063 165.329 35.4018 165.152C35.2972 164.976 35.1589 164.821 34.9948 164.698C33.3811 163.488 31.8487 162.172 30.4073 160.761ZM17.2167 134.211C17.1906 134.007 17.1247 133.811 17.0227 133.633C16.9208 133.455 16.7847 133.298 16.6224 133.173C16.46 133.047 16.2745 132.955 16.0765 132.901C15.8785 132.848 15.6718 132.833 15.4682 132.859C15.2647 132.885 15.0682 132.951 14.8902 133.053C14.7121 133.155 14.5558 133.291 14.4303 133.454C14.3048 133.616 14.2125 133.801 14.1587 133.999C14.1049 134.197 14.0906 134.404 14.1167 134.608C14.3927 136.743 14.8103 138.859 15.3667 140.939C15.4554 141.271 15.6515 141.565 15.9245 141.775C16.1974 141.985 16.5319 142.098 16.876 142.098C17.0121 142.1 17.1477 142.083 17.2792 142.048C17.4776 141.996 17.6638 141.904 17.827 141.78C17.9902 141.655 18.1272 141.5 18.2303 141.322C18.3333 141.144 18.4003 140.948 18.4275 140.745C18.4546 140.541 18.4414 140.334 18.3885 140.136C17.8678 138.189 17.4763 136.21 17.2167 134.211ZM33.201 91.539C32.9348 91.2259 32.5559 91.0303 32.1464 90.9946C31.737 90.959 31.3299 91.086 31.0135 91.3484C29.951 92.2421 28.9219 93.1879 27.926 94.1858C27.3885 94.7171 26.8698 95.264 26.3635 95.8202C26.0842 96.1265 25.938 96.5311 25.9571 96.9452C25.9761 97.3592 26.1589 97.7487 26.4651 98.028C26.7713 98.3073 27.176 98.4536 27.59 98.4345C28.0041 98.4155 28.3936 98.2327 28.6729 97.9265C29.1437 97.4077 29.6312 96.8983 30.1354 96.3984C31.0729 95.4608 32.0323 94.5765 33.0229 93.7421C33.1793 93.6092 33.308 93.4467 33.4016 93.264C33.4952 93.0814 33.5519 92.882 33.5684 92.6774C33.585 92.4729 33.561 92.267 33.498 92.0717C33.435 91.8763 33.334 91.6953 33.201 91.539ZM91.001 163.389C89.4484 164.674 87.8126 165.854 86.1042 166.923C85.7527 167.143 85.503 167.493 85.4098 167.897C85.3166 168.301 85.3876 168.725 85.6073 169.076C85.8269 169.428 86.1771 169.678 86.5809 169.771C86.9847 169.864 87.409 169.793 87.7604 169.573C89.586 168.431 91.3345 167.17 92.9948 165.798C93.153 165.667 93.2838 165.507 93.3799 165.325C93.476 165.144 93.5353 164.945 93.5546 164.741C93.5739 164.536 93.5528 164.33 93.4924 164.134C93.432 163.937 93.3335 163.755 93.2026 163.597C93.0717 163.439 92.9109 163.308 92.7294 163.212C92.5479 163.116 92.3493 163.056 92.1448 163.037C91.9404 163.018 91.7342 163.039 91.5379 163.099C91.3417 163.16 91.1592 163.258 91.001 163.389ZM46.8698 84.0952C46.797 83.9034 46.6871 83.7277 46.5463 83.5783C46.4056 83.4289 46.2369 83.3087 46.0497 83.2246C45.8625 83.1404 45.6606 83.094 45.4555 83.0879C45.2503 83.0817 45.046 83.1161 44.8542 83.189C42.8418 83.9568 40.8832 84.8588 38.9917 85.889C38.6274 86.0871 38.3567 86.4217 38.2392 86.8194C38.1217 87.217 38.167 87.645 38.3651 88.0093C38.5632 88.3735 38.8978 88.6442 39.2955 88.7617C39.6931 88.8792 40.1211 88.8339 40.4854 88.6359C42.2527 87.6722 44.0829 86.8287 45.9635 86.1109C46.1554 86.038 46.331 85.9281 46.4804 85.7874C46.6298 85.6467 46.75 85.4779 46.8342 85.2908C46.9183 85.1036 46.9648 84.9017 46.9709 84.6965C46.977 84.4914 46.9426 84.2871 46.8698 84.0952ZM77.9854 170.914C76.0946 171.614 74.1603 172.19 72.1948 172.639C71.8218 172.726 71.4936 172.946 71.2726 173.259C71.0516 173.572 70.9532 173.955 70.996 174.335C71.0388 174.716 71.2198 175.068 71.5048 175.323C71.7897 175.579 72.1587 175.722 72.5417 175.723C72.6583 175.723 72.7745 175.711 72.8885 175.686C74.9879 175.208 77.0538 174.593 79.0729 173.845C79.2654 173.774 79.4419 173.665 79.5924 173.526C79.7429 173.386 79.8644 173.218 79.95 173.031C80.0356 172.845 80.0836 172.643 80.0913 172.438C80.099 172.233 80.0662 172.028 79.9948 171.836C79.9234 171.643 79.8148 171.467 79.6751 171.316C79.5355 171.166 79.3676 171.044 79.181 170.959C78.9944 170.873 78.7928 170.825 78.5877 170.817C78.3825 170.81 78.1779 170.843 77.9854 170.914ZM48.3385 171.595C46.416 170.982 44.5368 170.241 42.7135 169.376C42.3468 169.238 41.9413 169.242 41.5776 169.389C41.2139 169.535 40.9186 169.813 40.7502 170.167C40.5818 170.521 40.5527 170.926 40.6686 171.3C40.7846 171.675 41.0371 171.992 41.376 172.189C43.3217 173.111 45.326 173.903 47.376 174.561C47.5296 174.61 47.6898 174.635 47.851 174.636C48.2252 174.638 48.5878 174.506 48.8729 174.264C49.158 174.021 49.3466 173.685 49.4045 173.315C49.4624 172.945 49.3857 172.567 49.1883 172.249C48.991 171.931 48.6861 171.695 48.3292 171.583L48.3385 171.595ZM98.5854 159.511C98.8178 159.511 99.0472 159.459 99.2569 159.359C99.4667 159.259 99.6515 159.113 99.7979 158.933C101.157 157.263 102.401 155.504 103.523 153.667C103.63 153.492 103.702 153.298 103.734 153.095C103.766 152.892 103.757 152.685 103.709 152.486C103.661 152.286 103.574 152.098 103.454 151.932C103.333 151.766 103.181 151.626 103.006 151.519C102.831 151.412 102.636 151.34 102.434 151.308C102.231 151.276 102.024 151.284 101.824 151.332C101.625 151.38 101.437 151.467 101.271 151.588C101.105 151.709 100.964 151.861 100.857 152.036C99.8075 153.754 98.6434 155.399 97.3729 156.961C97.186 157.19 97.068 157.468 97.0326 157.761C96.9971 158.055 97.0457 158.352 97.1727 158.619C97.2997 158.886 97.4998 159.112 97.7499 159.27C98 159.428 98.2897 159.511 98.5854 159.511ZM108.301 136.889C107.896 136.801 107.473 136.877 107.124 137.101C106.775 137.325 106.53 137.678 106.442 138.083C106.016 140.05 105.458 141.987 104.773 143.88C104.632 144.269 104.652 144.699 104.828 145.074C105.003 145.449 105.321 145.739 105.71 145.88C105.88 145.944 106.06 145.977 106.242 145.976C106.562 145.977 106.875 145.878 107.138 145.694C107.401 145.51 107.601 145.25 107.71 144.948C108.444 142.922 109.041 140.848 109.498 138.742C109.584 138.338 109.507 137.916 109.282 137.568C109.058 137.221 108.705 136.977 108.301 136.889ZM22.7198 103.036C22.5437 102.93 22.3486 102.861 22.1456 102.83C21.9426 102.8 21.7356 102.811 21.5366 102.861C21.3375 102.91 21.1502 102.999 20.9854 103.121C20.8206 103.244 20.6815 103.397 20.576 103.573C19.4691 105.421 18.4877 107.341 17.6385 109.32C17.5575 109.509 17.5145 109.712 17.512 109.917C17.5094 110.123 17.5474 110.327 17.6238 110.517C17.7001 110.708 17.8133 110.882 17.9568 111.029C18.1004 111.175 18.2715 111.293 18.4604 111.373C18.6574 111.459 18.8704 111.503 19.0854 111.501C19.3898 111.502 19.6877 111.413 19.9426 111.247C20.1974 111.08 20.398 110.843 20.5198 110.564C21.3136 108.713 22.2313 106.917 23.2667 105.189C23.3732 105.012 23.4436 104.816 23.4738 104.611C23.504 104.407 23.4934 104.199 23.4425 103.998C23.3917 103.798 23.3016 103.61 23.1775 103.445C23.0535 103.279 22.8979 103.141 22.7198 103.036ZM105.745 107.267C105.563 106.894 105.241 106.609 104.849 106.473C104.457 106.338 104.027 106.364 103.654 106.545C103.281 106.727 102.996 107.049 102.86 107.441C102.725 107.833 102.751 108.263 102.932 108.636C103.811 110.449 104.569 112.319 105.201 114.233C105.336 114.621 105.618 114.94 105.986 115.122C106.354 115.304 106.78 115.333 107.17 115.204C107.559 115.074 107.883 114.797 108.069 114.431C108.256 114.065 108.291 113.64 108.167 113.248C107.493 111.203 106.684 109.205 105.745 107.267ZM83.3104 86.5609C83.2119 86.7412 83.1499 86.9391 83.128 87.1434C83.1061 87.3477 83.1247 87.5543 83.1828 87.7514C83.2409 87.9485 83.3372 88.1322 83.4664 88.292C83.5955 88.4518 83.7549 88.5846 83.9354 88.6827C85.7023 89.6493 87.402 90.7341 89.0229 91.9296C89.2934 92.1324 89.6223 92.2421 89.9604 92.2421C90.2883 92.2421 90.608 92.1389 90.874 91.9472C91.1401 91.7554 91.339 91.4848 91.4427 91.1737C91.5464 90.8626 91.5496 90.5267 91.4518 90.2137C91.354 89.9007 91.1603 89.6264 90.8979 89.4296L90.826 89.3796C91.0413 89.1246 91.1678 88.8066 91.1864 88.4734C91.205 88.1402 91.1147 87.8101 90.9292 87.5327C89.7992 85.863 88.7824 84.1195 87.8854 82.314C87.7941 82.1293 87.6673 81.9644 87.5123 81.8288C87.3572 81.6931 87.177 81.5893 86.9819 81.5233C86.7867 81.4572 86.5805 81.4303 86.3749 81.444C86.1694 81.4577 85.9685 81.5117 85.7838 81.603C85.5992 81.6944 85.4343 81.8211 85.2986 81.9762C85.163 82.1312 85.0591 82.3114 84.9931 82.5066C84.9271 82.7017 84.9002 82.908 84.9139 83.1135C84.9276 83.3191 84.9816 83.5199 85.0729 83.7046C85.5792 84.7202 86.126 85.7202 86.7042 86.7015C86.2854 86.4546 85.8729 86.189 85.4542 85.9577C85.2742 85.8549 85.0756 85.789 84.8699 85.7637C84.6642 85.7384 84.4555 85.7542 84.256 85.8104C84.0565 85.8665 83.8701 85.9618 83.7078 86.0906C83.5454 86.2194 83.4104 86.3793 83.3104 86.5609ZM69.7292 83.7609C71.7161 84.0951 73.6788 84.5607 75.6042 85.1546C75.9956 85.2624 76.4137 85.2136 76.7698 85.0185C77.126 84.8234 77.3921 84.4973 77.512 84.1094C77.6318 83.7214 77.5959 83.302 77.4119 82.94C77.2278 82.5781 76.9101 82.302 76.526 82.1702C74.4683 81.5353 72.3711 81.0363 70.2479 80.6765C69.8389 80.6077 69.4193 80.7042 69.0814 80.9448C68.7436 81.1853 68.5151 81.5503 68.4463 81.9593C68.3775 82.3683 68.4741 82.7879 68.7146 83.1257C68.9552 83.4636 69.3201 83.6921 69.7292 83.7609Z" fill="#131313"/>
</svg>
