<svg width="166" height="191" viewBox="0 0 166 191" fill="none" xmlns="http://www.w3.org/2000/svg">
<path d="M164.719 47.0843L83.5312 0.209335C83.2937 0.0721972 83.0243 0 82.75 0C82.4757 0 82.2063 0.0721972 81.9687 0.209335L0.78125 47.0843C0.543726 47.2215 0.346483 47.4187 0.209345 47.6562C0.0722073 47.8938 6.96753e-06 48.1632 0 48.4375V142.187C6.96753e-06 142.462 0.0722073 142.731 0.209345 142.969C0.346483 143.206 0.543726 143.403 0.78125 143.541L81.9687 190.416C82.2063 190.553 82.4757 190.625 82.75 190.625C83.0243 190.625 83.2937 190.553 83.5312 190.416L164.719 143.541C164.956 143.403 165.154 143.206 165.291 142.969C165.428 142.731 165.5 142.462 165.5 142.187V48.4375C165.5 48.1632 165.428 47.8938 165.291 47.6562C165.154 47.4187 164.956 47.2215 164.719 47.0843ZM162.375 89.4812L127.612 29.2687L162.375 49.3406V89.4812ZM142.078 89.4812L117.469 46.85L142.078 61.0593V89.4812ZM126.856 89.4812L109.853 60.0312L126.856 69.85V89.4812ZM115.441 114.184L82.75 133.059L50.0594 114.184V76.4406L82.75 57.5656L115.441 76.4406V114.184ZM88.5813 57.325H104.681L112.731 71.2656L88.5813 57.325ZM52.7687 71.2656L60.8187 57.325H76.9188L52.7687 71.2656ZM46.9344 109.253L38.8844 95.3125L46.9344 81.3718V109.253ZM76.9188 133.316H60.8187L52.7687 119.375L76.9188 133.316ZM112.731 119.375L104.681 133.316H88.5813L112.731 119.375ZM118.566 81.3875L126.616 95.3125L118.566 109.253V81.3875ZM65.7531 54.2156L82.75 44.375L99.7531 54.1937L65.7531 54.2156ZM38.65 89.4968V69.85L55.6531 60.0312L38.65 89.4968ZM38.65 101.159L55.6531 130.609L38.65 120.791V101.159ZM99.7594 136.441L82.75 146.25L65.7469 136.431L99.7594 136.441ZM126.863 101.159V120.791L109.853 130.594L126.863 101.159ZM88.5813 44.1406H112.294L124.15 64.6875L88.5813 44.1406ZM41.35 64.6875L53.2062 44.1531H76.9188L41.35 64.6875ZM35.5187 115.847L23.6625 95.3125L35.5187 74.7781V115.847ZM76.9188 146.472H53.2062L41.35 125.937L76.9188 146.472ZM124.15 125.937L112.294 146.472H88.5813L124.15 125.937ZM129.981 74.7656L141.838 95.3125L129.981 115.847V74.7656ZM58.1344 41.0156L82.75 26.8031L107.366 41.0156H58.1344ZM23.4219 89.4812V61.0593L48.0312 46.85L23.4219 89.4812ZM23.4219 101.144L48.0312 143.775L23.4219 129.566V101.144ZM107.366 149.609L82.75 163.822L58.1344 149.609H107.366ZM142.078 101.144V129.566L117.469 143.775L142.078 101.144ZM88.5813 26.5625H122.438L139.369 55.8843L88.5813 26.5625ZM26.1281 55.8875L43.0625 26.5625H76.9188L26.1281 55.8875ZM20.2969 124.637L3.375 95.3125L20.3062 65.9875L20.2969 124.637ZM76.9188 164.062H43.0625L26.1312 134.741L76.9188 164.062ZM139.372 134.737L122.438 164.062H88.5813L139.372 134.737ZM145.203 65.9875L162.125 95.3125L145.194 124.637L145.203 65.9875ZM82.75 3.36558L117.513 23.4375H47.9875L82.75 3.36558ZM37.8844 29.2718L3.125 89.4812V49.3406L37.8844 29.2718ZM3.125 101.147L37.8875 161.356L3.125 141.284V101.147ZM82.75 187.259L47.9875 167.187H117.513L82.75 187.259ZM127.616 161.353L162.375 101.144V141.284L127.616 161.353Z" fill="#131313"/>
</svg>
