<svg width="167" height="191" viewBox="0 0 167 191" fill="none" xmlns="http://www.w3.org/2000/svg">
<path d="M139.324 95.3124L165.937 49.2187C166.074 48.9812 166.146 48.7117 166.146 48.4374C166.146 48.1632 166.074 47.8937 165.937 47.6562C165.8 47.4187 165.603 47.2214 165.365 47.0843C165.127 46.9471 164.858 46.8749 164.584 46.8749H111.353L84.74 0.781181C84.6029 0.54367 84.4056 0.34644 84.1681 0.209315C83.9306 0.0721899 83.6611 0 83.3869 0C83.1126 0 82.8432 0.0721899 82.6057 0.209315C82.3681 0.34644 82.1709 0.54367 82.0337 0.781181L55.4213 46.8749H2.19625C1.92198 46.8749 1.65254 46.9471 1.41501 47.0843C1.17749 47.2214 0.980246 47.4187 0.843113 47.6562C0.70598 47.8937 0.633787 48.1632 0.633789 48.4374C0.633791 48.7117 0.705987 48.9812 0.843124 49.2187L27.4494 95.3124L0.843124 141.406C0.705987 141.644 0.633791 141.913 0.633789 142.187C0.633787 142.462 0.70598 142.731 0.843113 142.969C0.980246 143.206 1.17749 143.403 1.41501 143.541C1.65254 143.678 1.92198 143.75 2.19625 143.75H55.4213L82.0337 189.844C82.1709 190.081 82.3681 190.278 82.6057 190.416C82.8432 190.553 83.1126 190.625 83.3869 190.625C83.6611 190.625 83.9306 190.553 84.1681 190.416C84.4056 190.278 84.6029 190.081 84.74 189.844L111.353 143.75H164.577C164.852 143.75 165.121 143.678 165.359 143.541C165.596 143.403 165.793 143.206 165.931 142.969C166.068 142.731 166.14 142.462 166.14 142.187C166.14 141.913 166.068 141.644 165.931 141.406L139.324 95.3124ZM161.878 49.9999L137.515 92.1874L113.156 49.9999H161.878ZM135.709 95.3124L123.981 115.625L86.0931 49.9999H109.549L135.709 95.3124ZM119.712 114.481L84.9494 94.4093V54.2687L119.712 114.481ZM83.3869 97.1156L118.146 117.187H48.6275L83.3869 97.1156ZM47.0619 114.481L81.8244 54.2687V94.4093L47.0619 114.481ZM84.9494 7.39368L107.743 46.8749H84.9494V7.39368ZM81.8244 7.39368V46.8749H59.0306L81.8244 7.39368ZM57.2244 49.9999H80.6806L42.7931 115.625L31.065 95.3124L57.2244 49.9999ZM4.9025 49.9999H53.6181L29.2587 92.1874L4.9025 49.9999ZM29.2587 98.4374L40.6556 118.178L6.465 137.919L29.2587 98.4374ZM8.0275 140.625L42.2181 120.884L53.6181 140.625H8.0275ZM83.3869 185.937L59.0306 143.75H107.743L83.3869 185.937ZM109.549 140.625H57.2244L45.4963 120.312H121.278L109.549 140.625ZM113.156 140.625L124.556 120.884L158.746 140.625H113.156ZM126.118 118.178L137.515 98.4374L160.309 137.919L126.118 118.178Z" fill="#131313"/>
</svg>
