<svg width="23" height="23" viewBox="0 0 23 23" fill="none" xmlns="http://www.w3.org/2000/svg">
<g clip-path="url(#clip0_169_1166)">
<path d="M21.2281 14.3912C20.9117 14.3912 20.6553 14.6475 20.6553 14.964V20.05C20.6541 20.9987 19.8855 21.7675 18.9368 21.7684H2.86409C1.91533 21.7675 1.14678 20.9987 1.14564 20.05V5.12288C1.14678 4.17435 1.91539 3.40557 2.86409 3.40443H7.95015C8.26652 3.40443 8.52297 3.14798 8.52297 2.83161C8.52297 2.51541 8.26652 2.25879 7.95015 2.25879H2.86409C1.283 2.26056 0.00177574 3.54179 0 5.12288V20.0502C0.00177574 21.6312 1.283 22.9125 2.86409 22.9143H18.9368C20.5179 22.9125 21.7991 21.6312 21.8009 20.0502V14.964C21.8009 14.6475 21.5445 14.3912 21.2281 14.3912Z" fill="#131313"/>
<path d="M21.574 0.784911C20.5673 -0.221761 18.9352 -0.221761 17.9286 0.784911L7.70902 11.0044C7.63906 11.0743 7.58842 11.1612 7.56203 11.2566L6.21814 16.1083C6.19102 16.206 6.19031 16.3092 6.2161 16.4072C6.24189 16.5053 6.29325 16.5947 6.36492 16.6664C6.4366 16.7381 6.52603 16.7895 6.62407 16.8153C6.7221 16.8411 6.82524 16.8405 6.92294 16.8134L11.7747 15.4692C11.87 15.4428 11.9569 15.3922 12.0269 15.3223L22.2461 5.10259C23.2512 4.09518 23.2512 2.46447 22.2461 1.45711L21.574 0.784911ZM8.95713 11.3767L17.321 3.01266L20.0184 5.71007L11.6544 14.0741L8.95713 11.3767ZM8.41834 12.4579L10.5733 14.6132L7.59245 15.4391L8.41834 12.4579ZM21.4362 4.29257L20.8286 4.89999L18.131 2.20235L18.7388 1.59488C19.2979 1.03569 20.2046 1.03569 20.7637 1.59488L21.4362 2.26702C21.9944 2.8269 21.9944 3.73292 21.4362 4.29257Z" fill="#131313"/>
</g>
<defs>
<clipPath id="clip0_169_1166">
<rect width="23" height="23" fill="white"/>
</clipPath>
</defs>
</svg>
